<?xml version="1.0" standalone="no"?>
<!DOCTYPE svg PUBLIC "-//W3C//DTD SVG 20010904//EN"
 "http://www.w3.org/TR/2001/REC-SVG-20010904/DTD/svg10.dtd">
<svg version="1.0" xmlns="http://www.w3.org/2000/svg"
 width="96.000000pt" height="96.000000pt" viewBox="0 0 96.000000 96.000000"
 preserveAspectRatio="xMidYMid meet">

<g transform="translate(0.000000,96.000000) scale(0.100000,-0.100000)"
fill="#447ad0" stroke="none">
<path d="M332 855 c-114 -32 -203 -110 -244 -214 -31 -80 -31 -232 1 -313 49
-126 165 -209 317 -228 220 -28 399 60 465 228 33 83 33 232 -1 317 -32 82
-114 164 -195 195 -78 30 -262 38 -343 15z m48 -240 c16 -19 10 -45 -15 -61
-39 -26 -86 31 -53 64 16 16 53 15 68 -3z m274 -7 c12 -20 2 -44 -27 -62 -19
-12 -57 17 -57 44 0 40 62 53 84 18z m-312 -222 c25 -22 59 -39 89 -45 69 -15
136 1 187 45 44 37 67 43 76 18 10 -26 -31 -71 -90 -100 -78 -38 -170 -38
-248 0 -58 29 -102 76 -92 101 9 24 35 17 78 -19z"/>
</g>
</svg>
